<svg width="8" height="14" viewBox="0 0 8 14" fill="none" xmlns="http://www.w3.org/2000/svg">
<path d="M7.33267 7.00382C7.33267 6.80936 7.26678 6.63537 7.13499 6.48184L1.73623 0.540567C1.67715 0.474041 1.61125 0.422867 1.53854 0.387045C1.46129 0.351224 1.37949 0.333313 1.29314 0.333313C1.17499 0.333313 1.0682 0.364017 0.972764 0.425426C0.877331 0.486834 0.802348 0.568712 0.747815 0.67106C0.693282 0.778525 0.666016 0.898783 0.666016 1.03184C0.666016 1.2263 0.725093 1.39261 0.843248 1.53078L6.18066 7.41065V6.58931L0.843248 12.4692C0.725093 12.6125 0.666016 12.7788 0.666016 12.9681C0.666016 13.1012 0.693282 13.2189 0.747815 13.3212C0.802348 13.4287 0.877331 13.5131 0.972764 13.5745C1.0682 13.6359 1.17499 13.6666 1.29314 13.6666C1.46129 13.6666 1.60671 13.5976 1.72941 13.4594L7.13499 7.51811C7.19861 7.45159 7.2486 7.37227 7.28496 7.28016C7.31677 7.19316 7.33267 7.10105 7.33267 7.00382Z" fill="black"/>
</svg>
