<svg width="8" height="14" viewBox="0 0 8 14" fill="none" xmlns="http://www.w3.org/2000/svg">
<path d="M0.667328 7.00382C0.667328 6.80936 0.733222 6.63537 0.86501 6.48184L6.26377 0.540567C6.32285 0.474041 6.38875 0.422867 6.46146 0.387045C6.53871 0.351224 6.62051 0.333313 6.70686 0.333313C6.82501 0.333313 6.9318 0.364017 7.02724 0.425426C7.12267 0.486834 7.19765 0.568712 7.25218 0.67106C7.30672 0.778525 7.33398 0.898783 7.33398 1.03184C7.33398 1.2263 7.27491 1.39261 7.15675 1.53078L1.81934 7.41065V6.58931L7.15675 12.4692C7.27491 12.6125 7.33398 12.7788 7.33398 12.9681C7.33398 13.1012 7.30672 13.2189 7.25218 13.3212C7.19765 13.4287 7.12267 13.5131 7.02724 13.5745C6.9318 13.6359 6.82501 13.6666 6.70686 13.6666C6.53871 13.6666 6.39329 13.5976 6.27059 13.4594L0.86501 7.51811C0.801388 7.45159 0.7514 7.37227 0.715044 7.28016C0.683233 7.19316 0.667328 7.10105 0.667328 7.00382Z" fill="black"/>
</svg>
