<svg width="20" height="10" viewBox="0 0 20 10" fill="none" xmlns="http://www.w3.org/2000/svg">
<path d="M10.005 9.66667C9.59645 9.66667 9.22249 9.52404 8.88316 9.23878L1.06124 2.37472C0.929659 2.25587 0.829244 2.12809 0.759993 1.99141C0.697667 1.85472 0.666504 1.70318 0.666504 1.53677C0.666504 1.31689 0.72883 1.11483 0.853482 0.930598C0.978134 0.746368 1.14434 0.600767 1.35209 0.493794C1.56677 0.386822 1.80222 0.333336 2.05845 0.333336C2.44626 0.333336 2.78559 0.455165 3.07645 0.698825L10.4829 7.22414H9.53759L16.9232 0.698825C17.2141 0.455165 17.5534 0.333336 17.9412 0.333336C18.1975 0.333336 18.4294 0.386822 18.6372 0.493794C18.8519 0.600767 19.0215 0.746368 19.1462 0.930598C19.2708 1.11483 19.3332 1.31689 19.3332 1.53677C19.3332 1.86363 19.1981 2.13998 18.9281 2.36581L11.1269 9.23878C10.9607 9.38141 10.7841 9.48838 10.5971 9.5597C10.4171 9.62507 10.2197 9.66073 10.005 9.66667Z" fill="#3E434D"/>
</svg>
