<svg width="20" height="10" viewBox="0 0 20 10" fill="none" xmlns="http://www.w3.org/2000/svg">
<path d="M9.99472 0.333329C10.4033 0.333329 10.7773 0.475959 11.1166 0.761219L18.9385 7.62528C19.0701 7.74413 19.1705 7.87191 19.2398 8.00859C19.3021 8.14528 19.3333 8.29682 19.3333 8.46323C19.3333 8.68311 19.2709 8.88517 19.1463 9.0694C19.0216 9.25363 18.8554 9.39923 18.6477 9.50621C18.433 9.61318 18.1975 9.66666 17.9413 9.66666C17.5535 9.66666 17.2142 9.54483 16.9233 9.30118L9.51689 2.77586L10.4622 2.77586L3.07653 9.30117C2.78567 9.54483 2.44634 9.66666 2.05853 9.66666C1.8023 9.66666 1.57031 9.61318 1.36256 9.5062C1.14788 9.39923 0.978214 9.25363 0.853561 9.0694C0.728909 8.88517 0.666582 8.68311 0.666582 8.46322C0.666582 8.13636 0.801623 7.86002 1.0717 7.63419L8.87285 0.761219C9.03906 0.618589 9.21565 0.511617 9.40263 0.440302C9.58268 0.37493 9.78005 0.339273 9.99472 0.333329Z" fill="#3E434D"/>
</svg>
