<svg width="32" height="33" viewBox="0 0 32 33" fill="none" xmlns="http://www.w3.org/2000/svg">
<rect width="32" height="32" transform="translate(0 0.5)" fill="#70737C" fill-opacity="0.08"/>
<path d="M9.62567 24.5C9.11864 24.5 8.71935 24.3932 8.42781 24.1796C8.1426 23.972 8 23.6843 8 23.3165C8 22.741 8.1838 22.1389 8.5514 21.51C8.91899 20.8752 9.45138 20.282 10.1485 19.7303C10.8457 19.1726 11.6855 18.7217 12.6679 18.3776C13.6566 18.0276 14.7657 17.8526 15.9952 17.8526C17.2311 17.8526 18.3403 18.0276 19.3226 18.3776C20.3113 18.7217 21.1511 19.1726 21.8419 19.7303C22.5391 20.282 23.0715 20.8752 23.4391 21.51C23.813 22.1389 24 22.741 24 23.3165C24 23.6843 23.8542 23.972 23.5627 24.1796C23.2775 24.3932 22.8814 24.5 22.3743 24.5H9.62567ZM16.0048 16.2597C15.3266 16.2597 14.6991 16.0877 14.1224 15.7436C13.5457 15.3936 13.0798 14.9249 12.7249 14.3376C12.3763 13.7443 12.202 13.0799 12.202 12.3443C12.202 11.6205 12.3763 10.9679 12.7249 10.3865C13.0798 9.80515 13.5457 9.34538 14.1224 9.00723C14.6991 8.66908 15.3266 8.5 16.0048 8.5C16.6829 8.5 17.3104 8.66611 17.8871 8.99833C18.4639 9.33055 18.9265 9.78736 19.2751 10.3687C19.63 10.9442 19.8075 11.5968 19.8075 12.3265C19.8075 13.068 19.63 13.7354 19.2751 14.3287C18.9265 14.922 18.4639 15.3936 17.8871 15.7436C17.3104 16.0877 16.6829 16.2597 16.0048 16.2597Z" fill="white"/>
</svg>
