<svg width="28" height="29" viewBox="0 0 28 29" fill="none" xmlns="http://www.w3.org/2000/svg">
<path d="M3.5 20.7117C3.5 20.3352 3.60758 19.97 3.82273 19.6161C4.03789 19.2623 4.30498 18.9159 4.624 18.5771C4.95045 18.2383 5.27318 17.8995 5.5922 17.5606C5.83704 17.3046 6.02622 16.9696 6.15977 16.5555C6.30073 16.1414 6.4046 15.7009 6.47137 15.2341C6.53815 14.7673 6.58637 14.3155 6.61605 13.8788C6.63831 12.3955 6.7904 11.093 7.07233 9.9711C7.35425 8.8417 7.79569 7.90054 8.39665 7.14761C9.00502 6.39468 9.80258 5.83751 10.7893 5.4761C10.9748 4.73823 11.3495 4.1133 11.9133 3.6013C12.4846 3.08931 13.1783 2.83331 13.9944 2.83331C14.8179 2.83331 15.5116 3.08931 16.0755 3.6013C16.6468 4.1133 17.0251 4.73823 17.2106 5.4761C18.1974 5.83751 18.9912 6.39468 19.5922 7.14761C20.1931 7.90054 20.6346 8.8417 20.9165 9.9711C21.2058 11.093 21.3616 12.3955 21.3839 13.8788C21.4136 14.3155 21.4618 14.7673 21.5286 15.2341C21.5953 15.7009 21.6955 16.1414 21.829 16.5555C21.97 16.9696 22.1629 17.3046 22.4077 17.5606C22.7268 17.8995 23.0458 18.2383 23.3648 18.5771C23.6912 18.9159 23.962 19.2623 24.1772 19.6161C24.3924 19.97 24.4999 20.3352 24.4999 20.7117C24.4999 21.1258 24.3516 21.4571 24.0548 21.7055C23.758 21.954 23.3463 22.0782 22.8195 22.0782H18.1232C18.0935 22.8086 17.8969 23.4824 17.5333 24.0998C17.1772 24.7248 16.695 25.2255 16.0866 25.6019C15.4782 25.9784 14.7808 26.1666 13.9944 26.1666C13.2154 26.1666 12.5217 25.9746 11.9133 25.5907C11.305 25.2142 10.819 24.7173 10.4555 24.0998C10.0993 23.4824 9.90645 22.8086 9.87677 22.0782H5.18044C4.65368 22.0782 4.24192 21.954 3.94515 21.7055C3.64838 21.4571 3.5 21.1258 3.5 20.7117ZM5.65898 20.3728H22.3298V20.2373C22.2631 20.1319 22.1518 19.9926 21.996 19.8194C21.8476 19.6387 21.6732 19.443 21.4729 19.2321C21.28 19.0213 21.0834 18.8067 20.8831 18.5884C20.6828 18.3625 20.5084 18.1028 20.36 17.8091C20.2117 17.5079 20.0855 17.1691 19.9817 16.7927C19.8852 16.4162 19.8036 15.9983 19.7368 15.539C19.6775 15.0797 19.6367 14.5753 19.6144 14.0256C19.5847 12.3842 19.4141 11.0817 19.1025 10.1179C18.7983 9.15417 18.3903 8.43888 17.8783 7.97207C17.3738 7.49772 16.8026 7.1702 16.1645 6.98949C16.031 6.95937 15.9234 6.90667 15.8418 6.83138C15.7676 6.74855 15.7305 6.63561 15.7305 6.49256C15.7082 5.90527 15.5413 5.42716 15.2297 5.05822C14.9255 4.68176 14.5137 4.49353 13.9944 4.49353C13.4825 4.49353 13.0707 4.68176 12.7591 5.05822C12.4549 5.42716 12.2917 5.90527 12.2694 6.49256C12.262 6.63561 12.2212 6.74855 12.147 6.83138C12.0728 6.90667 11.9653 6.95937 11.8243 6.98949C11.1863 7.1702 10.6113 7.49772 10.0993 7.97207C9.59484 8.43888 9.1905 9.15417 8.88631 10.1179C8.58213 11.0817 8.41519 12.3842 8.38552 14.0256C8.35584 14.5753 8.31133 15.0797 8.25197 15.539C8.19262 15.9983 8.11101 16.4162 8.00714 16.7927C7.90327 17.1691 7.77715 17.5079 7.62876 17.8091C7.48038 18.1028 7.30603 18.3625 7.10571 18.5884C6.91281 18.8067 6.71621 19.0213 6.51589 19.2321C6.32299 19.443 6.14864 19.6387 5.99284 19.8194C5.83704 19.9926 5.72575 20.1319 5.65898 20.2373V20.3728ZM11.6129 22.0782C11.6499 22.8462 11.8874 23.4523 12.3251 23.8966C12.7702 24.3483 13.3267 24.5742 13.9944 24.5742C14.6695 24.5742 15.226 24.3483 15.6637 23.8966C16.1014 23.4523 16.3426 22.8462 16.3871 22.0782H11.6129Z" fill="#3E434D"/>
</svg>
