<svg width="14" height="14" viewBox="0 0 14 14" fill="none" xmlns="http://www.w3.org/2000/svg">
<path d="M0.636125 13.3638C0.499751 13.2274 0.409744 13.0692 0.366104 12.8891C0.322464 12.709 0.322464 12.529 0.366104 12.3489C0.409744 12.1688 0.497023 12.0133 0.627943 11.8824L5.50469 6.99592L0.627943 2.11767C0.497023 1.99217 0.409744 1.83938 0.366104 1.65931C0.327919 1.47378 0.327919 1.29099 0.366104 1.11092C0.409744 0.930847 0.499751 0.772604 0.636125 0.636188C0.767045 0.499771 0.922512 0.409737 1.10253 0.366083C1.288 0.32243 1.47074 0.32243 1.65075 0.366083C1.83622 0.409737 1.99442 0.497043 2.12533 0.628003L7.00209 5.50625L11.8788 0.628003C12.0098 0.497043 12.1652 0.409737 12.3452 0.366083C12.5253 0.32243 12.7053 0.32243 12.8853 0.366083C13.0653 0.409737 13.2235 0.5025 13.3599 0.644373C13.4962 0.775332 13.5862 0.930847 13.6299 1.11092C13.679 1.29099 13.679 1.47106 13.6299 1.65113C13.5862 1.83119 13.499 1.98671 13.368 2.11767L8.49948 6.99592L13.368 11.8824C13.499 12.0133 13.5862 12.1688 13.6299 12.3489C13.6735 12.529 13.6735 12.709 13.6299 12.8891C13.5862 13.0692 13.4962 13.2274 13.3599 13.3638C13.2235 13.5002 13.0653 13.5903 12.8853 13.6339C12.7053 13.6776 12.5253 13.6776 12.3452 13.6339C12.1652 13.5903 12.0098 13.503 11.8788 13.372L7.00209 8.49377L2.12533 13.372C1.99442 13.503 1.83895 13.5903 1.65893 13.6339C1.47892 13.6776 1.29618 13.6776 1.11071 13.6339C0.930694 13.5903 0.7725 13.5002 0.636125 13.3638Z" fill="black"/>
</svg>
