<svg width="18" height="18" viewBox="0 0 18 18" fill="none" xmlns="http://www.w3.org/2000/svg">
<path d="M9.0025 13.5C8.34388 13.5 7.71983 13.4142 7.13037 13.2427C6.5442 13.0747 5.99919 12.8524 5.49535 12.5758C4.9948 12.2958 4.54529 11.9877 4.14682 11.6517C3.74836 11.3156 3.40752 10.9796 3.12432 10.6435C2.84111 10.304 2.62377 9.99067 2.47228 9.70362C2.32409 9.41307 2.25 9.17853 2.25 9C2.25 8.82147 2.32409 8.58868 2.47228 8.30163C2.62377 8.01109 2.84111 7.69778 3.12432 7.36173C3.40752 7.02217 3.74836 6.68436 4.14682 6.34831C4.54858 6.01225 4.99974 5.70595 5.50029 5.4294C6.00413 5.14936 6.54914 4.92532 7.13531 4.75729C7.72477 4.58576 8.34717 4.5 9.0025 4.5C9.66441 4.5 10.2901 4.58576 10.8796 4.75729C11.4723 4.92532 12.019 5.14936 12.5195 5.4294C13.0234 5.70595 13.4729 6.01225 13.868 6.34831C14.2665 6.68436 14.6057 7.02217 14.8856 7.36173C15.1655 7.69778 15.3796 8.01109 15.5278 8.30163C15.676 8.58868 15.7501 8.82147 15.7501 9C15.7501 9.17853 15.676 9.41307 15.5278 9.70362C15.3796 9.99067 15.1655 10.304 14.8856 10.6435C14.6057 10.9796 14.2665 11.3156 13.868 11.6517C13.4729 11.9877 13.025 12.2958 12.5245 12.5758C12.0239 12.8524 11.4773 13.0747 10.8845 13.2427C10.295 13.4142 9.6677 13.5 9.0025 13.5ZM9.0025 12.6704C9.54256 12.6704 10.0612 12.5986 10.5585 12.4551C11.059 12.3116 11.5283 12.1225 11.9663 11.888C12.4043 11.6499 12.8011 11.3909 13.1567 11.1109C13.5157 10.8308 13.8236 10.5543 14.0805 10.2812C14.3373 10.0047 14.5349 9.75263 14.6732 9.52509C14.8148 9.29755 14.8856 9.12252 14.8856 9C14.8856 8.89498 14.8148 8.73396 14.6732 8.51692C14.5349 8.29988 14.3373 8.05309 14.0805 7.77655C13.8236 7.4965 13.5157 7.2147 13.1567 6.93116C12.8011 6.64761 12.4043 6.38506 11.9663 6.14352C11.5283 5.89848 11.059 5.70245 10.5585 5.55543C10.0612 5.4049 9.54256 5.32964 9.0025 5.32964C8.45914 5.32964 7.93718 5.4049 7.43663 5.55543C6.93608 5.70245 6.46681 5.89848 6.02883 6.14352C5.59085 6.38506 5.19403 6.64761 4.83837 6.93116C4.48272 7.2147 4.17482 7.4965 3.91466 7.77655C3.6578 8.05309 3.46021 8.29988 3.3219 8.51692C3.18359 8.73396 3.11444 8.89498 3.11444 9C3.11444 9.12252 3.18359 9.29755 3.3219 9.52509C3.46021 9.75263 3.6578 10.0047 3.91466 10.2812C4.17482 10.5543 4.48272 10.8308 4.83837 11.1109C5.19403 11.3909 5.59085 11.6499 6.02883 11.888C6.46681 12.1225 6.93608 12.3116 7.43663 12.4551C7.93718 12.5986 8.45914 12.6704 9.0025 12.6704ZM9.0025 11.9405C8.61391 11.9405 8.25167 11.8635 7.91577 11.7095C7.57988 11.5554 7.28515 11.3436 7.03158 11.0741C6.77801 10.8011 6.57878 10.4877 6.43388 10.1342C6.29228 9.77713 6.22148 9.39907 6.22148 9C6.22148 8.59043 6.29228 8.20712 6.43388 7.85006C6.57878 7.493 6.77801 7.18145 7.03158 6.9154C7.28515 6.64586 7.57988 6.43582 7.91577 6.2853C8.25167 6.13477 8.61391 6.05951 9.0025 6.05951C9.3845 6.05951 9.74344 6.13477 10.0793 6.2853C10.4152 6.43582 10.71 6.64586 10.9635 6.9154C11.2171 7.18145 11.4147 7.493 11.5563 7.85006C11.7012 8.20712 11.7736 8.59043 11.7736 9C11.7736 9.39907 11.7012 9.77713 11.5563 10.1342C11.4147 10.4877 11.2171 10.8011 10.9635 11.0741C10.71 11.3436 10.4152 11.5554 10.0793 11.7095C9.74344 11.8635 9.3845 11.9405 9.0025 11.9405ZM9.0025 9.97666C9.25606 9.97666 9.47341 9.8804 9.65453 9.68786C9.83565 9.49533 9.92621 9.26604 9.92621 9C9.92621 8.73046 9.83565 8.50117 9.65453 8.31214C9.47341 8.1196 9.25606 8.02334 9.0025 8.02334C8.74563 8.02334 8.52664 8.1196 8.34552 8.31214C8.1644 8.50117 8.07384 8.73046 8.07384 9C8.07384 9.26604 8.1644 9.49533 8.34552 9.68786C8.52664 9.8804 8.74563 9.97666 9.0025 9.97666Z" fill="#8A8A8A"/>
</svg>
