<svg width="24" height="24" viewBox="0 0 24 24" fill="none" xmlns="http://www.w3.org/2000/svg">
<path d="M5.83593 20C4.89062 20 4.18013 19.7599 3.70447 19.2797C3.23482 18.8057 3 18.0916 3 17.1374V5.86257C3 4.90838 3.23482 4.19428 3.70447 3.72026C4.18013 3.24009 4.89062 3 5.83593 3H18.1731C19.1184 3 19.8259 3.24009 20.2955 3.72026C20.7652 4.19428 21 4.90838 21 5.86257V17.1374C21 18.0916 20.7652 18.8057 20.2955 19.2797C19.8259 19.7599 19.1184 20 18.1731 20H5.83593ZM5.70045 18.5133H18.2905C18.6939 18.5133 19.004 18.4025 19.2208 18.1809C19.4375 17.9654 19.5459 17.6453 19.5459 17.2205V8.51276C19.5459 8.088 19.4375 7.76788 19.2208 7.55242C19.004 7.3308 18.6939 7.21999 18.2905 7.21999H5.70045C5.30306 7.21999 4.99599 7.3308 4.77923 7.55242C4.56247 7.76788 4.45409 8.088 4.45409 8.51276V17.2205C4.45409 17.6453 4.56247 17.9654 4.77923 18.1809C4.99599 18.4025 5.30306 18.5133 5.70045 18.5133ZM10.2434 10.5443C10.0868 10.5443 9.97541 10.5135 9.90918 10.4519C9.84897 10.3904 9.81887 10.2796 9.81887 10.1195V9.57469C9.81887 9.41463 9.84897 9.3069 9.90918 9.25149C9.97541 9.18993 10.0868 9.15915 10.2434 9.15915H10.7762C10.9328 9.15915 11.0411 9.18993 11.1014 9.25149C11.1676 9.3069 11.2007 9.41463 11.2007 9.57469V10.1195C11.2007 10.2796 11.1676 10.3904 11.1014 10.4519C11.0411 10.5135 10.9328 10.5443 10.7762 10.5443H10.2434ZM13.2418 10.5443C13.0853 10.5443 12.9769 10.5135 12.9167 10.4519C12.8565 10.3904 12.8264 10.2796 12.8264 10.1195V9.57469C12.8264 9.41463 12.8565 9.3069 12.9167 9.25149C12.9769 9.18993 13.0853 9.15915 13.2418 9.15915H13.7747C13.9373 9.15915 14.0487 9.18993 14.1089 9.25149C14.1691 9.3069 14.1992 9.41463 14.1992 9.57469V10.1195C14.1992 10.2796 14.1691 10.3904 14.1089 10.4519C14.0487 10.5135 13.9373 10.5443 13.7747 10.5443H13.2418ZM16.2494 10.5443C16.0868 10.5443 15.9754 10.5135 15.9152 10.4519C15.855 10.3904 15.8249 10.2796 15.8249 10.1195V9.57469C15.8249 9.41463 15.855 9.3069 15.9152 9.25149C15.9754 9.18993 16.0868 9.15915 16.2494 9.15915H16.7732C16.9358 9.15915 17.0472 9.18993 17.1074 9.25149C17.1676 9.3069 17.1977 9.41463 17.1977 9.57469V10.1195C17.1977 10.2796 17.1676 10.3904 17.1074 10.4519C17.0472 10.5135 16.9358 10.5443 16.7732 10.5443H16.2494ZM7.24486 13.5638C7.08229 13.5638 6.9709 13.533 6.91069 13.4715C6.85048 13.4099 6.82037 13.2991 6.82037 13.1391V12.6035C6.82037 12.4373 6.85048 12.3265 6.91069 12.271C6.9709 12.2095 7.08229 12.1787 7.24486 12.1787H7.77772C7.93427 12.1787 8.04265 12.2095 8.10286 12.271C8.16307 12.3265 8.19318 12.4373 8.19318 12.6035V13.1391C8.19318 13.2991 8.16307 13.4099 8.10286 13.4715C8.04265 13.533 7.93427 13.5638 7.77772 13.5638H7.24486ZM10.2434 13.5638C10.0868 13.5638 9.97541 13.533 9.90918 13.4715C9.84897 13.4099 9.81887 13.2991 9.81887 13.1391V12.6035C9.81887 12.4373 9.84897 12.3265 9.90918 12.271C9.97541 12.2095 10.0868 12.1787 10.2434 12.1787H10.7762C10.9328 12.1787 11.0411 12.2095 11.1014 12.271C11.1676 12.3265 11.2007 12.4373 11.2007 12.6035V13.1391C11.2007 13.2991 11.1676 13.4099 11.1014 13.4715C11.0411 13.533 10.9328 13.5638 10.7762 13.5638H10.2434ZM13.2418 13.5638C13.0853 13.5638 12.9769 13.533 12.9167 13.4715C12.8565 13.4099 12.8264 13.2991 12.8264 13.1391V12.6035C12.8264 12.4373 12.8565 12.3265 12.9167 12.271C12.9769 12.2095 13.0853 12.1787 13.2418 12.1787H13.7747C13.9373 12.1787 14.0487 12.2095 14.1089 12.271C14.1691 12.3265 14.1992 12.4373 14.1992 12.6035V13.1391C14.1992 13.2991 14.1691 13.4099 14.1089 13.4715C14.0487 13.533 13.9373 13.5638 13.7747 13.5638H13.2418ZM16.2494 13.5638C16.0868 13.5638 15.9754 13.533 15.9152 13.4715C15.855 13.4099 15.8249 13.2991 15.8249 13.1391V12.6035C15.8249 12.4373 15.855 12.3265 15.9152 12.271C15.9754 12.2095 16.0868 12.1787 16.2494 12.1787H16.7732C16.9358 12.1787 17.0472 12.2095 17.1074 12.271C17.1676 12.3265 17.1977 12.4373 17.1977 12.6035V13.1391C17.1977 13.2991 17.1676 13.4099 17.1074 13.4715C17.0472 13.533 16.9358 13.5638 16.7732 13.5638H16.2494ZM7.24486 16.5834C7.08229 16.5834 6.9709 16.5557 6.91069 16.5003C6.85048 16.4387 6.82037 16.3248 6.82037 16.1586V15.623C6.82037 15.4568 6.85048 15.346 6.91069 15.2906C6.9709 15.229 7.08229 15.1983 7.24486 15.1983H7.77772C7.93427 15.1983 8.04265 15.229 8.10286 15.2906C8.16307 15.346 8.19318 15.4568 8.19318 15.623V16.1586C8.19318 16.3248 8.16307 16.4387 8.10286 16.5003C8.04265 16.5557 7.93427 16.5834 7.77772 16.5834H7.24486ZM10.2434 16.5834C10.0868 16.5834 9.97541 16.5557 9.90918 16.5003C9.84897 16.4387 9.81887 16.3248 9.81887 16.1586V15.623C9.81887 15.4568 9.84897 15.346 9.90918 15.2906C9.97541 15.229 10.0868 15.1983 10.2434 15.1983H10.7762C10.9328 15.1983 11.0411 15.229 11.1014 15.2906C11.1676 15.346 11.2007 15.4568 11.2007 15.623V16.1586C11.2007 16.3248 11.1676 16.4387 11.1014 16.5003C11.0411 16.5557 10.9328 16.5834 10.7762 16.5834H10.2434ZM13.2418 16.5834C13.0853 16.5834 12.9769 16.5557 12.9167 16.5003C12.8565 16.4387 12.8264 16.3248 12.8264 16.1586V15.623C12.8264 15.4568 12.8565 15.346 12.9167 15.2906C12.9769 15.229 13.0853 15.1983 13.2418 15.1983H13.7747C13.9373 15.1983 14.0487 15.229 14.1089 15.2906C14.1691 15.346 14.1992 15.4568 14.1992 15.623V16.1586C14.1992 16.3248 14.1691 16.4387 14.1089 16.5003C14.0487 16.5557 13.9373 16.5834 13.7747 16.5834H13.2418Z" fill="#46474C" fill-opacity="0.68"/>
</svg>
