<svg width="19" height="18" viewBox="0 0 19 18" fill="none" xmlns="http://www.w3.org/2000/svg">
<path fill-rule="evenodd" clip-rule="evenodd" d="M10.3184 3.12229C10.3184 2.80622 10.0639 2.54999 9.74999 2.54999C9.43606 2.54999 9.18157 2.80622 9.18157 3.12229V5.4115H3.11841C2.80448 5.4115 2.54999 5.66773 2.54999 5.98381V10.2499C1.51649 10.5062 0.75 11.4457 0.75 12.5654C0.75 13.8824 1.81038 14.95 3.11842 14.95C4.42646 14.95 5.48684 13.8824 5.48684 12.5654C5.48684 11.4457 4.72035 10.5062 3.68683 10.2499V6.55611H9.18157V10.2499C8.14807 10.5062 7.38158 11.4457 7.38158 12.5654C7.38158 13.8824 8.44196 14.95 9.75 14.95C11.058 14.95 12.1184 13.8824 12.1184 12.5654C12.1184 11.4457 11.3519 10.5062 10.3184 10.2499V6.55611H15.8132V10.2499C14.7797 10.5062 14.0132 11.4457 14.0132 12.5654C14.0132 13.8824 15.0735 14.95 16.3816 14.95C17.6896 14.95 18.75 13.8824 18.75 12.5654C18.75 11.4457 17.9835 10.5062 16.95 10.2499V5.98381C16.95 5.66773 16.6955 5.4115 16.3816 5.4115H10.3184V3.12229ZM4.45066 12.5654C4.45066 13.3062 3.85419 13.9067 3.11842 13.9067C2.38265 13.9067 1.78618 13.3062 1.78618 12.5654C1.78618 11.8245 2.38265 11.2241 3.11842 11.2241C3.85419 11.2241 4.45066 11.8245 4.45066 12.5654ZM11.0822 12.5654C11.0822 13.3062 10.4858 13.9067 9.75 13.9067C9.01423 13.9067 8.41776 13.3062 8.41776 12.5654C8.41776 11.8245 9.01423 11.2241 9.75 11.2241C10.4858 11.2241 11.0822 11.8245 11.0822 12.5654ZM16.3816 13.9067C17.1173 13.9067 17.7138 13.3062 17.7138 12.5654C17.7138 11.8245 17.1173 11.2241 16.3816 11.2241C15.6458 11.2241 15.0494 11.8245 15.0494 12.5654C15.0494 13.3062 15.6458 13.9067 16.3816 13.9067Z" fill="black"/>
</svg>
