<svg width="28" height="28" viewBox="0 0 28 28" fill="none" xmlns="http://www.w3.org/2000/svg">
<path d="M22.5556 5.83331H5.44453C5.01497 5.83331 4.66675 6.25989 4.66675 6.78609V7.73887C4.66675 8.26507 5.01497 8.69165 5.44453 8.69165H22.5556C22.9852 8.69165 23.3334 8.26507 23.3334 7.73887V6.78609C23.3334 6.25989 22.9852 5.83331 22.5556 5.83331Z" fill="#3E434D"/>
<path d="M22.5556 12.5708H5.44453C5.01497 12.5708 4.66675 12.9974 4.66675 13.5236V14.4764C4.66675 15.0026 5.01497 15.4291 5.44453 15.4291H22.5556C22.9852 15.4291 23.3334 15.0026 23.3334 14.4764V13.5236C23.3334 12.9974 22.9852 12.5708 22.5556 12.5708Z" fill="#3E434D"/>
<path d="M5.44453 19.3083H22.5556C22.9852 19.3083 23.3334 19.7349 23.3334 20.2611V21.2139C23.3334 21.7401 22.9852 22.1666 22.5556 22.1666H5.44453C5.01497 22.1666 4.66675 21.7401 4.66675 21.2139V20.2611C4.66675 19.7349 5.01497 19.3083 5.44453 19.3083Z" fill="#3E434D"/>
</svg>
