<svg width="18" height="18" viewBox="0 0 18 18" fill="none" xmlns="http://www.w3.org/2000/svg">
<path d="M17.2499 15.4821C17.2499 15.1567 17.0037 14.8929 16.6999 14.8929C16.3962 14.8929 16.1499 15.1567 16.1499 15.4821H17.2499ZM16.1499 16.6607C16.1499 16.9861 16.3962 17.25 16.6999 17.25C17.0037 17.25 17.2499 16.9861 17.2499 16.6607H16.1499ZM16.1499 15.4821C16.1499 15.8076 16.3962 16.0714 16.6999 16.0714C17.0037 16.0714 17.2499 15.8076 17.2499 15.4821H16.1499ZM17.2499 2.51786C17.2499 2.19241 17.0037 1.92857 16.6999 1.92857C16.3962 1.92857 16.1499 2.19241 16.1499 2.51786H17.2499ZM16.5847 16.0583C16.8816 16.1266 17.174 15.9239 17.2377 15.6056C17.3014 15.2874 17.1122 14.9742 16.8152 14.906L16.5847 16.0583ZM10.2153 13.3903C9.91829 13.3221 9.62591 13.5248 9.56226 13.843C9.49853 14.1612 9.68773 14.4745 9.98473 14.5427L10.2153 13.3903ZM1.8501 11.9464C1.8501 11.621 1.60386 11.3571 1.30011 11.3571C0.996357 11.3571 0.750114 11.621 0.750114 11.9464H1.8501ZM0.750114 13.125C0.750114 13.4504 0.996357 13.7143 1.30011 13.7143C1.60386 13.7143 1.8501 13.4504 1.8501 13.125H0.750114ZM0.750114 11.9464C0.750114 12.2719 0.996357 12.5357 1.30011 12.5357C1.60386 12.5357 1.8501 12.2719 1.8501 11.9464H0.750114ZM1.8501 6.05357C1.8501 5.72813 1.60386 5.46428 1.30011 5.46428C0.996357 5.46428 0.750114 5.72813 0.750114 6.05357H1.8501ZM1.41533 11.3702C1.11832 11.3021 0.825955 11.5048 0.762317 11.823C0.698686 12.1412 0.887876 12.4545 1.18489 12.5227L1.41533 11.3702ZM9.98473 14.5427C10.2817 14.6108 10.5742 14.4081 10.6378 14.0899C10.7014 13.7717 10.5123 13.4585 10.2153 13.3903L9.98473 14.5427ZM16.1499 2.51786C16.1499 2.8433 16.3962 3.10714 16.6999 3.10714C17.0037 3.10714 17.2499 2.8433 17.2499 2.51786H16.1499ZM17.2499 1.33929C17.2499 1.01383 17.0037 0.75 16.6999 0.75C16.3962 0.75 16.1499 1.01383 16.1499 1.33929H17.2499ZM16.8151 3.0941C17.1122 3.0259 17.3013 2.71263 17.2378 2.39442C17.1741 2.07615 16.8817 1.87346 16.5847 1.94165L16.8151 3.0941ZM1.18487 5.47733C0.887855 5.54553 0.698679 5.85879 0.762324 6.177C0.825969 6.4953 1.11834 6.69793 1.41535 6.62981L1.18487 5.47733ZM0.750114 6.05357C0.750114 6.37901 0.996357 6.64285 1.30011 6.64285C1.60386 6.64285 1.8501 6.37901 1.8501 6.05357H0.750114ZM1.8501 4.875C1.8501 4.54956 1.60386 4.28571 1.30011 4.28571C0.996357 4.28571 0.750114 4.54956 0.750114 4.875H1.8501ZM6.25005 12.9565C6.25005 12.631 6.0038 12.3672 5.70006 12.3672C5.39631 12.3672 5.15006 12.631 5.15006 12.9565H6.25005ZM5.70006 13.8993L6.24858 13.9421C6.24954 13.9278 6.25005 13.9135 6.25005 13.8993H5.70006ZM7.90003 16.6607L7.85332 17.2479C7.88397 17.2507 7.91477 17.2507 7.94542 17.2479L7.90003 16.6607ZM10.6493 13.9367C10.6339 13.6117 10.3755 13.3615 10.0722 13.378C9.76884 13.3944 9.53535 13.6713 9.55074 13.9963L10.6493 13.9367ZM16.1499 15.4821V16.6607H17.2499V15.4821H16.1499ZM17.2499 15.4821V2.51786H16.1499V15.4821H17.2499ZM16.8152 14.906L10.2153 13.3903L9.98473 14.5427L16.5847 16.0583L16.8152 14.906ZM0.750114 11.9464V13.125H1.8501V11.9464H0.750114ZM1.8501 11.9464V6.05357H0.750114V11.9464H1.8501ZM1.18489 12.5227L9.98473 14.5427L10.2153 13.3903L1.41533 11.3702L1.18489 12.5227ZM17.2499 2.51786V1.33929H16.1499V2.51786H17.2499ZM16.5847 1.94165L1.18487 5.47733L1.41535 6.62981L16.8151 3.0941L16.5847 1.94165ZM1.8501 6.05357V4.875H0.750114V6.05357H1.8501ZM5.15006 12.9565V13.8993H6.25005V12.9565H5.15006ZM5.15153 13.8566C5.03398 15.5888 6.23817 17.1003 7.85332 17.2479L7.94674 16.0735C6.9316 15.9808 6.17474 15.0307 6.24858 13.9421L5.15153 13.8566ZM7.94542 17.2479C9.53314 17.1071 10.7299 15.6415 10.6493 13.9367L9.55074 13.9963C9.60127 15.0657 8.85057 15.9851 7.85464 16.0735L7.94542 17.2479Z" fill="black"/>
<path d="M17.2499 15.4821C17.2499 15.1567 17.0037 14.8929 16.6999 14.8929C16.3962 14.8929 16.1499 15.1567 16.1499 15.4821M17.2499 15.4821H16.1499M17.2499 15.4821C17.2499 15.8076 17.0037 16.0714 16.6999 16.0714C16.3962 16.0714 16.1499 15.8076 16.1499 15.4821M17.2499 15.4821V16.6607M17.2499 15.4821V2.51786M16.1499 15.4821V16.6607M16.1499 15.4821V2.51786M16.1499 16.6607C16.1499 16.9861 16.3962 17.25 16.6999 17.25C17.0037 17.25 17.2499 16.9861 17.2499 16.6607M16.1499 16.6607H17.2499M17.2499 2.51786C17.2499 2.19241 17.0037 1.92857 16.6999 1.92857C16.3962 1.92857 16.1499 2.19241 16.1499 2.51786M17.2499 2.51786H16.1499M17.2499 2.51786C17.2499 2.8433 17.0037 3.10714 16.6999 3.10714C16.3962 3.10714 16.1499 2.8433 16.1499 2.51786M17.2499 2.51786V1.33929M16.1499 2.51786V1.33929M16.5847 16.0583C16.8816 16.1266 17.174 15.9239 17.2377 15.6056C17.3014 15.2874 17.1122 14.9742 16.8152 14.906M16.5847 16.0583L16.8152 14.906M16.5847 16.0583L9.98473 14.5427M16.8152 14.906L10.2153 13.3903M10.2153 13.3903C9.91829 13.3221 9.62591 13.5248 9.56226 13.843C9.49853 14.1612 9.68773 14.4745 9.98473 14.5427M10.2153 13.3903L9.98473 14.5427M10.2153 13.3903C10.5123 13.4585 10.7014 13.7717 10.6378 14.0899C10.5742 14.4081 10.2817 14.6108 9.98473 14.5427M10.2153 13.3903L1.41533 11.3702M9.98473 14.5427L1.18489 12.5227M1.8501 11.9464C1.8501 11.621 1.60386 11.3571 1.30011 11.3571C0.996357 11.3571 0.750114 11.621 0.750114 11.9464M1.8501 11.9464H0.750114M1.8501 11.9464C1.8501 12.2719 1.60386 12.5357 1.30011 12.5357C0.996357 12.5357 0.750114 12.2719 0.750114 11.9464M1.8501 11.9464V13.125M1.8501 11.9464V6.05357M0.750114 11.9464V13.125M0.750114 11.9464V6.05357M0.750114 13.125C0.750114 13.4504 0.996357 13.7143 1.30011 13.7143C1.60386 13.7143 1.8501 13.4504 1.8501 13.125M0.750114 13.125H1.8501M1.8501 6.05357C1.8501 5.72813 1.60386 5.46428 1.30011 5.46428C0.996357 5.46428 0.750114 5.72813 0.750114 6.05357M1.8501 6.05357H0.750114M1.8501 6.05357C1.8501 6.37901 1.60386 6.64285 1.30011 6.64285C0.996357 6.64285 0.750114 6.37901 0.750114 6.05357M1.8501 6.05357V4.875M0.750114 6.05357V4.875M1.41533 11.3702C1.11832 11.3021 0.825955 11.5048 0.762317 11.823C0.698686 12.1412 0.887876 12.4545 1.18489 12.5227M1.41533 11.3702L1.18489 12.5227M17.2499 1.33929C17.2499 1.01383 17.0037 0.75 16.6999 0.75C16.3962 0.75 16.1499 1.01383 16.1499 1.33929M17.2499 1.33929H16.1499M16.8151 3.0941C17.1122 3.0259 17.3013 2.71263 17.2378 2.39442C17.1741 2.07615 16.8817 1.87346 16.5847 1.94165M16.8151 3.0941L16.5847 1.94165M16.8151 3.0941L1.41535 6.62981M16.5847 1.94165L1.18487 5.47733M1.18487 5.47733C0.887855 5.54553 0.698679 5.85879 0.762324 6.177C0.825969 6.4953 1.11834 6.69793 1.41535 6.62981M1.18487 5.47733L1.41535 6.62981M1.8501 4.875C1.8501 4.54956 1.60386 4.28571 1.30011 4.28571C0.996357 4.28571 0.750114 4.54956 0.750114 4.875M1.8501 4.875H0.750114M6.25005 12.9565C6.25005 12.631 6.0038 12.3672 5.70006 12.3672C5.39631 12.3672 5.15006 12.631 5.15006 12.9565M6.25005 12.9565H5.15006M6.25005 12.9565V13.8993M5.15006 12.9565V13.8993H6.25005M6.24858 13.9421L5.70006 13.8993H6.25005M6.24858 13.9421C6.24954 13.9278 6.25005 13.9135 6.25005 13.8993M6.24858 13.9421C6.17474 15.0307 6.9316 15.9808 7.94674 16.0735L7.85332 17.2479M6.24858 13.9421L5.15153 13.8566C5.03398 15.5888 6.23817 17.1003 7.85332 17.2479M7.85332 17.2479L7.90003 16.6607L7.94542 17.2479M7.85332 17.2479C7.88397 17.2507 7.91477 17.2507 7.94542 17.2479M7.94542 17.2479C9.53315 17.1071 10.7299 15.6415 10.6493 13.9367M7.94542 17.2479L7.85464 16.0735C8.85057 15.9851 9.60127 15.0657 9.55074 13.9963M10.6493 13.9367C10.6339 13.6117 10.3755 13.3615 10.0722 13.378C9.76884 13.3944 9.53534 13.6713 9.55074 13.9963M10.6493 13.9367L9.55074 13.9963" stroke="black" stroke-width="0.4"/>
</svg>
