<svg width="22" height="14" viewBox="0 0 22 14" fill="none" xmlns="http://www.w3.org/2000/svg">
<path d="M10.2074 13.4166C9.02472 13.4166 8.43335 13.0471 8.43335 12.3079C8.43335 11.8552 8.57818 11.3725 8.86783 10.8597C9.15747 10.3469 9.57505 9.86415 10.1206 9.41143C10.6709 8.95408 11.3347 8.5822 12.1119 8.29579C12.8939 8.00937 13.7749 7.86616 14.7549 7.86616C15.7397 7.86616 16.6207 8.00937 17.398 8.29579C18.18 8.5822 18.8438 8.95408 19.3893 9.41143C19.9396 9.86415 20.3596 10.3469 20.6493 10.8597C20.9389 11.3725 21.0837 11.8552 21.0837 12.3079C21.0837 13.0471 20.4899 13.4166 19.3024 13.4166H10.2074ZM9.85987 12.3703H19.65C19.7465 12.3703 19.8141 12.3564 19.8527 12.3287C19.8962 12.301 19.9179 12.2502 19.9179 12.1763C19.9179 11.8899 19.8044 11.5619 19.5776 11.1923C19.3555 10.8227 19.0248 10.4647 18.5855 10.1182C18.1462 9.77176 17.6055 9.48534 16.9635 9.25898C16.3214 9.028 15.5852 8.91251 14.7549 8.91251C13.9246 8.91251 13.1884 9.028 12.5464 9.25898C11.9091 9.48534 11.3709 9.77176 10.9316 10.1182C10.4923 10.4647 10.1592 10.8227 9.93228 11.1923C9.71022 11.5619 9.59919 11.8899 9.59919 12.1763C9.59919 12.2502 9.6185 12.301 9.65712 12.3287C9.70056 12.3564 9.76815 12.3703 9.85987 12.3703ZM14.7622 6.99998C14.1877 6.99998 13.6639 6.85446 13.1908 6.56343C12.7177 6.27239 12.3388 5.88203 12.054 5.39235C11.774 4.89805 11.634 4.35524 11.634 3.76393C11.634 3.17724 11.774 2.64367 12.054 2.16323C12.3388 1.68279 12.7177 1.29936 13.1908 1.01294C13.6639 0.726522 14.1877 0.583313 14.7622 0.583313C15.3415 0.583313 15.8676 0.724212 16.3407 1.00601C16.8138 1.28781 17.1904 1.66893 17.4704 2.14937C17.7504 2.62519 17.8904 3.15876 17.8904 3.75007C17.8904 4.346 17.7479 4.89112 17.4631 5.38542C17.1831 5.8751 16.8066 6.26777 16.3335 6.56343C15.8604 6.85446 15.3366 6.99998 14.7622 6.99998ZM14.7622 5.95363C15.1194 5.95363 15.4452 5.85662 15.7397 5.6626C16.039 5.46395 16.278 5.19832 16.4566 4.86571C16.6352 4.52848 16.7245 4.1566 16.7245 3.75007C16.7245 3.34816 16.6352 2.98783 16.4566 2.66908C16.2828 2.3457 16.0463 2.09162 15.747 1.90684C15.4525 1.72205 15.1242 1.62966 14.7622 1.62966C14.4049 1.62966 14.0767 1.72436 13.7774 1.91377C13.4829 2.09855 13.2463 2.35263 13.0677 2.67601C12.8891 2.99938 12.7998 3.36202 12.7998 3.76393C12.7998 4.17046 12.8891 4.54003 13.0677 4.87264C13.2512 5.20525 13.4901 5.46857 13.7846 5.6626C14.0839 5.85662 14.4098 5.95363 14.7622 5.95363ZM2.38696 13.4166C1.89938 13.4166 1.53249 13.3196 1.28629 13.1256C1.04009 12.9362 0.916992 12.6475 0.916992 12.2594C0.916992 11.6866 1.0594 11.1369 1.34422 10.6102C1.62904 10.079 2.02248 9.60776 2.52454 9.19661C3.03142 8.78085 3.61554 8.45285 4.27691 8.21263C4.9431 7.97241 5.65515 7.8523 6.41306 7.8523C6.81374 7.8523 7.20235 7.88695 7.57889 7.95624C7.95543 8.02092 8.31749 8.12024 8.66507 8.25421C9.01748 8.38356 9.35057 8.54525 9.66436 8.73927C9.50022 8.85014 9.35057 8.96794 9.2154 9.09267C9.08023 9.21278 8.95713 9.34213 8.8461 9.48072C8.60956 9.34675 8.36094 9.23588 8.10026 9.14811C7.8444 9.06034 7.57407 8.99335 7.28924 8.94715C7.00925 8.90096 6.71719 8.87786 6.41306 8.87786C5.81928 8.87786 5.25688 8.97025 4.72586 9.15504C4.19484 9.3352 3.72416 9.58235 3.31383 9.89649C2.90349 10.206 2.58005 10.5594 2.34351 10.9567C2.11179 11.354 1.99593 11.7674 1.99593 12.1971C1.99593 12.2664 2.01283 12.3149 2.04662 12.3426C2.08041 12.3749 2.13593 12.3911 2.21317 12.3911H7.51372C7.48958 12.6036 7.53303 12.8045 7.64406 12.994C7.7551 13.1834 7.89751 13.3243 8.07129 13.4166H2.38696ZM6.4203 7.06235C5.92307 7.06235 5.46929 6.93531 5.05896 6.68123C4.64862 6.42253 4.32035 6.07836 4.07415 5.64874C3.82795 5.21911 3.70485 4.74329 3.70485 4.22127C3.70485 3.70849 3.82795 3.24191 4.07415 2.82152C4.32035 2.39652 4.64862 2.05929 5.05896 1.80982C5.46929 1.55575 5.92307 1.42871 6.4203 1.42871C6.92236 1.42871 7.37855 1.55344 7.78889 1.8029C8.19922 2.05236 8.52508 2.38728 8.76645 2.80767C9.01265 3.22805 9.13575 3.69463 9.13575 4.20741C9.13575 4.72943 9.01265 5.20756 8.76645 5.64181C8.52025 6.07605 8.19198 6.42253 7.78165 6.68123C7.37131 6.93531 6.91753 7.06235 6.4203 7.06235ZM6.4203 6.02986C6.71478 6.02986 6.98753 5.94901 7.23856 5.78733C7.48958 5.62102 7.68992 5.40159 7.83958 5.12903C7.98923 4.85185 8.06405 4.54465 8.06405 4.20741C8.06405 3.87942 7.98923 3.58376 7.83958 3.32044C7.69475 3.05713 7.49683 2.84924 7.2458 2.69679C6.9996 2.53973 6.72443 2.46119 6.4203 2.46119C6.121 2.46119 5.84583 2.53973 5.5948 2.69679C5.3486 2.85386 5.15068 3.06636 5.00103 3.3343C4.8562 3.59762 4.78379 3.89328 4.78379 4.22127C4.78379 4.55389 4.85862 4.85878 5.00827 5.13596C5.15792 5.40852 5.35585 5.62564 5.60205 5.78733C5.85307 5.94901 6.12583 6.02986 6.4203 6.02986Z" fill="black"/>
</svg>
