<svg width="20" height="20" viewBox="0 0 20 20" fill="none" xmlns="http://www.w3.org/2000/svg">
<path d="M10 19.75C8.66814 19.75 7.41274 19.4951 6.23382 18.9853C5.06127 18.4755 4.02574 17.7713 3.12721 16.8728C2.22868 15.9743 1.52451 14.9387 1.01471 13.7662C0.504902 12.5873 0.25 11.3319 0.25 10C0.25 8.66814 0.504902 7.41593 1.01471 6.24338C1.52451 5.06446 2.22549 4.02574 3.11765 3.12721C4.01618 2.22868 5.05172 1.52451 6.22426 1.01471C7.40319 0.504902 8.65858 0.25 9.99044 0.25C11.3223 0.25 12.5777 0.504902 13.7566 1.01471C14.9355 1.52451 15.9743 2.22868 16.8728 3.12721C17.7713 4.02574 18.4755 5.06446 18.9853 6.24338C19.4951 7.41593 19.75 8.66814 19.75 10C19.75 11.3319 19.4951 12.5873 18.9853 13.7662C18.4755 14.9387 17.7713 15.9743 16.8728 16.8728C15.9743 17.7713 14.9355 18.4755 13.7566 18.9853C12.5841 19.4951 11.3319 19.75 10 19.75ZM8.92941 14.6647C9.0951 14.6647 9.24485 14.6265 9.37868 14.55C9.5125 14.4735 9.63039 14.3588 9.73235 14.2059L14.225 7.12279C14.2824 7.02721 14.3365 6.92525 14.3875 6.81691C14.4385 6.70858 14.464 6.60024 14.464 6.49191C14.464 6.26887 14.3811 6.09363 14.2154 5.96618C14.0498 5.83235 13.865 5.76544 13.661 5.76544C13.3806 5.76544 13.1512 5.91201 12.9728 6.20515L8.89118 12.7625L6.95074 10.2581C6.82966 10.0988 6.71176 9.99044 6.59706 9.93309C6.48873 9.87574 6.36446 9.84706 6.22426 9.84706C6.0076 9.84706 5.82598 9.92672 5.67941 10.086C5.53284 10.239 5.45956 10.4238 5.45956 10.6404C5.45956 10.7488 5.47868 10.8571 5.51691 10.9654C5.56152 11.0674 5.61887 11.1662 5.68897 11.2618L8.08824 14.2059C8.21569 14.3716 8.34632 14.4895 8.48015 14.5596C8.61397 14.6297 8.76373 14.6647 8.92941 14.6647Z" fill="#0626A9"/>
</svg>
