<svg width="22" height="22" viewBox="0 0 22 22" fill="none" xmlns="http://www.w3.org/2000/svg">
<path d="M2.75 5.39998C2.75 4.94895 3.11416 4.58331 3.56338 4.58331H18.4366C18.8858 4.58331 19.25 4.94895 19.25 5.39998C19.25 5.85101 18.8858 6.21665 18.4366 6.21665H3.56338C3.11416 6.21665 2.75 5.85101 2.75 5.39998Z" fill="black"/>
<path d="M2.75 16.6C2.75 16.1489 3.11416 15.7833 3.56338 15.7833H12.8592C13.3084 15.7833 13.6725 16.1489 13.6725 16.6C13.6725 17.051 13.3084 17.4166 12.8592 17.4166H3.56338C3.11416 17.4166 2.75 17.051 2.75 16.6Z" fill="black"/>
<path d="M3.56338 10.1833C3.11416 10.1833 2.75 10.5489 2.75 11C2.75 11.451 3.11416 11.8166 3.56338 11.8166H18.4366C18.8858 11.8166 19.25 11.451 19.25 11C19.25 10.5489 18.8858 10.1833 18.4366 10.1833H3.56338Z" fill="black"/>
</svg>
