<svg width="20" height="20" viewBox="0 0 20 20" fill="none" xmlns="http://www.w3.org/2000/svg">
<path d="M10 19.75C8.66814 19.75 7.41275 19.4951 6.23382 18.9853C5.06127 18.4755 4.02574 17.7713 3.12721 16.8728C2.22868 15.9743 1.52451 14.9387 1.01471 13.7662C0.504902 12.5873 0.25 11.3319 0.25 10C0.25 8.66814 0.504902 7.41593 1.01471 6.24338C1.52451 5.06446 2.22549 4.02574 3.11765 3.12721C4.01618 2.22868 5.05172 1.52451 6.22427 1.01471C7.40319 0.504902 8.65858 0.25 9.99044 0.25C11.3223 0.25 12.5777 0.504902 13.7566 1.01471C14.9355 1.52451 15.9743 2.22868 16.8728 3.12721C17.7713 4.02574 18.4755 5.06446 18.9853 6.24338C19.4951 7.41593 19.75 8.66814 19.75 10C19.75 11.3319 19.4951 12.5873 18.9853 13.7662C18.4755 14.9387 17.7713 15.9743 16.8728 16.8728C15.9743 17.7713 14.9355 18.4755 13.7566 18.9853C12.5841 19.4951 11.3319 19.75 10 19.75ZM10 18.125C11.1279 18.125 12.1826 17.9147 13.164 17.4941C14.1453 17.0735 15.0088 16.4936 15.7544 15.7544C16.5 15.0088 17.0799 14.1453 17.4941 13.164C17.9147 12.1826 18.125 11.1279 18.125 10C18.125 8.87206 17.9147 7.8174 17.4941 6.83603C17.0735 5.85466 16.4904 4.99118 15.7449 4.24559C15.0056 3.5 14.1422 2.9201 13.1544 2.50588C12.173 2.08529 11.1184 1.875 9.99044 1.875C8.8625 1.875 7.80784 2.08529 6.82647 2.50588C5.8451 2.9201 4.9848 3.5 4.24559 4.24559C3.50637 4.99118 2.92647 5.85466 2.50588 6.83603C2.09167 7.8174 1.88456 8.87206 1.88456 10C1.88456 11.1279 2.09167 12.1826 2.50588 13.164C2.92647 14.1453 3.50637 15.0088 4.24559 15.7544C4.99118 16.4936 5.85466 17.0735 6.83603 17.4941C7.8174 17.9147 8.87206 18.125 10 18.125ZM8.94853 14.5309C8.78922 14.5309 8.64265 14.4958 8.50882 14.4257C8.38137 14.3556 8.25711 14.2441 8.13603 14.0912L5.80368 11.2235C5.65711 11.026 5.58382 10.8284 5.58382 10.6309C5.58382 10.4206 5.65392 10.2422 5.79412 10.0956C5.94069 9.94265 6.11593 9.86618 6.31985 9.86618C6.45368 9.86618 6.57476 9.89485 6.68309 9.95221C6.79779 10.0032 6.9125 10.1051 7.02721 10.2581L8.91029 12.6956L12.8772 6.32941C13.0556 6.04265 13.2787 5.89926 13.5463 5.89926C13.7439 5.89926 13.9223 5.96299 14.0816 6.09044C14.2409 6.21789 14.3206 6.38676 14.3206 6.59706C14.3206 6.70539 14.2951 6.81373 14.2441 6.92206C14.1995 7.02402 14.1485 7.11961 14.0912 7.20882L9.72279 14.0912C9.53162 14.3843 9.27353 14.5309 8.94853 14.5309Z" fill="#AEB0B6"/>
</svg>
