<svg width="22" height="22" viewBox="0 0 22 22" fill="none" xmlns="http://www.w3.org/2000/svg">
<path d="M13.957 18H7.87012V15.5654H13.957V18ZM16.9805 4C17.9999 4.00017 18.8261 4.82722 18.8262 5.84668V13.1104C18.8262 14.1299 17.9999 14.9569 16.9805 14.957H4.8457C3.82631 14.9568 3 14.1298 3 13.1104V5.84668C3.00004 4.82726 3.82633 4.00024 4.8457 4H16.9805ZM10.9131 13.1309C10.577 13.1309 10.3047 13.4031 10.3047 13.7393C10.3047 14.0754 10.577 14.3476 10.9131 14.3477C11.2493 14.3477 11.5215 14.0754 11.5215 13.7393C11.5215 13.4031 11.2493 13.1309 10.9131 13.1309ZM5.13965 5.21777C4.63009 5.21803 4.21684 5.63102 4.2168 6.14062V11.5986C4.2168 12.1083 4.63006 12.5212 5.13965 12.5215H16.6855C17.1953 12.5214 17.6084 12.1084 17.6084 11.5986V6.14062C17.6084 5.63089 17.1953 5.21782 16.6855 5.21777H5.13965Z" fill="#0F0F10"/>
</svg>
