<svg width="14" height="16" viewBox="0 0 14 16" fill="none" xmlns="http://www.w3.org/2000/svg">
<path d="M10.6909 1.8124V0.588441C10.6909 0.26676 10.4265 0 10.1076 0C9.78868 0 9.52424 0.26676 9.52424 0.588441V1.76532H4.46868V0.588441C4.46868 0.26676 4.20424 0 3.88535 0C3.56646 0 3.30201 0.26676 3.30201 0.588441V1.8124C1.20201 2.00855 0.183124 3.27173 0.0275688 5.1469C0.0120132 5.37443 0.19868 5.56273 0.416458 5.56273H13.5765C13.802 5.56273 13.9887 5.36658 13.9653 5.1469C13.8098 3.27173 12.7909 2.00855 10.6909 1.8124Z" fill="#989BA2"/>
<path d="M13.2222 6.4594H0.777778C0.35 6.4594 0 6.81247 0 7.24399V12.0771C0 14.4308 1.16667 16 3.88889 16H10.1111C12.8333 16 14 14.4308 14 12.0771V7.24399C14 6.81247 13.65 6.4594 13.2222 6.4594ZM4.83 13.0264C4.75222 13.097 4.66667 13.1519 4.57333 13.1912C4.48 13.2304 4.37889 13.2539 4.27778 13.2539C4.17667 13.2539 4.07556 13.2304 3.98222 13.1912C3.88889 13.1519 3.80333 13.097 3.72556 13.0264C3.58556 12.8773 3.5 12.6733 3.5 12.4694C3.5 12.2654 3.58556 12.0614 3.72556 11.9123C3.80333 11.8417 3.88889 11.7868 3.98222 11.7475C4.16889 11.6691 4.38667 11.6691 4.57333 11.7475C4.66667 11.7868 4.75222 11.8417 4.83 11.9123C4.97 12.0614 5.05556 12.2654 5.05556 12.4694C5.05556 12.6733 4.97 12.8773 4.83 13.0264ZM4.99333 10.0214C4.95444 10.1156 4.9 10.2019 4.83 10.2803C4.75222 10.351 4.66667 10.4059 4.57333 10.4451C4.48 10.4843 4.37889 10.5079 4.27778 10.5079C4.17667 10.5079 4.07556 10.4843 3.98222 10.4451C3.88889 10.4059 3.80333 10.351 3.72556 10.2803C3.65556 10.2019 3.60111 10.1156 3.56222 10.0214C3.52333 9.92729 3.5 9.82529 3.5 9.72329C3.5 9.62129 3.52333 9.5193 3.56222 9.42515C3.60111 9.331 3.65556 9.24469 3.72556 9.16623C3.80333 9.09562 3.88889 9.0407 3.98222 9.00147C4.16889 8.92301 4.38667 8.92301 4.57333 9.00147C4.66667 9.0407 4.75222 9.09562 4.83 9.16623C4.9 9.24469 4.95444 9.331 4.99333 9.42515C5.03222 9.5193 5.05556 9.62129 5.05556 9.72329C5.05556 9.82529 5.03222 9.92729 4.99333 10.0214ZM7.55222 10.2803C7.47444 10.351 7.38889 10.4059 7.29556 10.4451C7.20222 10.4843 7.10111 10.5079 7 10.5079C6.89889 10.5079 6.79778 10.4843 6.70444 10.4451C6.61111 10.4059 6.52556 10.351 6.44778 10.2803C6.30778 10.1313 6.22222 9.92728 6.22222 9.72329C6.22222 9.5193 6.30778 9.31531 6.44778 9.16623C6.52556 9.09562 6.61111 9.0407 6.70444 9.00147C6.89111 8.91517 7.10889 8.91517 7.29556 9.00147C7.38889 9.0407 7.47444 9.09562 7.55222 9.16623C7.69222 9.31531 7.77778 9.5193 7.77778 9.72329C7.77778 9.92728 7.69222 10.1313 7.55222 10.2803Z" fill="#989BA2"/>
</svg>
